#tb 0: 1/1000
0,          0,          0,        0,      270, 0e9182e214aae732d94d007e5fe44888
0,         33,         33,        0,      270, 2630e2674b5611d68218fddac08815e2
0,         66,         66,        0,      270, d5cdd7d6a3de17939f60bb60ef6877da
0,        100,        100,        0,      270, 29d1961096061029e78963fa82581eca
0,        133,        133,        0,      270, 5c2629f8aa59757f6b4aafa9f6cbcba1
0,        166,        166,        0,      270, 1f1a8b61e4fbd6222ddf42e9d0a07032
0,        200,        200,        0,      270, cfb9771190ac2d0129907102d6abb63f
0,        233,        233,        0,      270, cd98dd856ba573a26a943cbe53221f26
0,        266,        266,        0,      270, ca13c161f067c4a4ce22bd58a2aca55b
0,        300,        300,        0,      270, de4bd1a474a76a35b796a5fc45b4f893
